<svg width="32" height="32" viewBox="0 0 32 32" fill="none" xmlns="http://www.w3.org/2000/svg">
<path d="M0 16C0 24.8366 7.16344 32 16 32C24.8366 32 32 24.8366 32 16C32 7.16344 24.8366 0 16 0C7.16344 0 0 7.16344 0 16Z" fill="#FC6D26"/>
<path fill-rule="evenodd" clip-rule="evenodd" d="M15.9755 8C11.5719 8 8 11.5719 8 15.9755C8 19.4985 10.2997 22.4832 13.4312 23.5596C13.8226 23.6086 13.9694 23.3639 13.9694 23.1682C13.9694 22.9725 13.9694 22.4832 13.9694 21.7982C11.7676 22.2875 11.2783 20.7217 11.2783 20.7217C10.9358 19.792 10.3976 19.5474 10.3976 19.5474C9.66361 19.0581 10.4465 19.0581 10.4465 19.0581C11.2294 19.107 11.6697 19.8899 11.6697 19.8899C12.4037 21.1131 13.5291 20.7706 13.9694 20.5749C14.0183 20.0367 14.263 19.6942 14.4587 19.4985C12.6972 19.3028 10.8379 18.6177 10.8379 15.5352C10.8379 14.6544 11.1315 13.9694 11.6697 13.3823C11.6208 13.2355 11.3272 12.4037 11.7676 11.3272C11.7676 11.3272 12.4526 11.1315 13.9694 12.159C14.6055 11.9633 15.2905 11.9144 15.9755 11.9144C16.6606 11.9144 17.3456 12.0122 17.9817 12.159C19.4985 11.1315 20.1835 11.3272 20.1835 11.3272C20.6239 12.4037 20.3303 13.2355 20.2813 13.4312C20.7706 13.9694 21.1131 14.7034 21.1131 15.5841C21.1131 18.6667 19.2538 19.3028 17.4924 19.4985C17.7859 19.7431 18.0306 20.2324 18.0306 20.9664C18.0306 22.0428 18.0306 22.8746 18.0306 23.1682C18.0306 23.3639 18.1774 23.6086 18.5688 23.5596C21.7492 22.4832 24 19.4985 24 15.9755C23.9511 11.5719 20.3792 8 15.9755 8Z" fill="white"/>
</svg>
